<svg width="29" height="29" viewBox="0 0 29 29" fill="none" xmlns="http://www.w3.org/2000/svg">
<rect width="28.8534" height="28.8534" fill="white" fill-opacity="0.5"/>
<path d="M25.5557 13.1789C26.1255 13.9243 26.1255 14.9305 25.5557 15.6747C23.7607 18.0179 19.4544 22.8424 14.4266 22.8424C9.39893 22.8424 5.09255 18.0179 3.29763 15.6747C3.02038 15.3178 2.86987 14.8788 2.86987 14.4268C2.86987 13.9749 3.02038 13.5358 3.29763 13.1789C5.09255 10.8358 9.39893 6.01123 14.4266 6.01123C19.4544 6.01123 23.7607 10.8358 25.5557 13.1789V13.1789Z" stroke="black" stroke-opacity="0.48" stroke-width="2" stroke-linecap="round" stroke-linejoin="round"/>
<path d="M14.4267 18.0334C16.4187 18.0334 18.0334 16.4187 18.0334 14.4267C18.0334 12.4348 16.4187 10.8201 14.4267 10.8201C12.4348 10.8201 10.8201 12.4348 10.8201 14.4267C10.8201 16.4187 12.4348 18.0334 14.4267 18.0334Z" stroke="black" stroke-opacity="0.48" stroke-width="2" stroke-linecap="round" stroke-linejoin="round"/>
</svg>
