<svg width="24" height="24" viewBox="0 0 24 24" fill="none" xmlns="http://www.w3.org/2000/svg">
<path d="M15.4999 12.0001C15.5007 12.1317 15.4755 12.2621 15.4257 12.384C15.3759 12.5058 15.3026 12.6166 15.2099 12.7101L11.2099 16.7101C11.1167 16.8033 11.006 16.8773 10.8842 16.9277C10.7624 16.9782 10.6318 17.0042 10.4999 17.0042C10.3681 17.0042 10.2375 16.9782 10.1157 16.9277C9.99387 16.8773 9.88318 16.8033 9.78994 16.7101C9.6967 16.6168 9.62274 16.5061 9.57228 16.3843C9.52182 16.2625 9.49585 16.1319 9.49585 16.0001C9.49585 15.8682 9.52182 15.7376 9.57228 15.6158C9.62274 15.494 9.6967 15.3833 9.78994 15.2901L13.0999 12.0001L9.91994 8.70006C9.81765 8.60807 9.73544 8.49596 9.67846 8.37075C9.62147 8.24553 9.59093 8.10991 9.58875 7.97236C9.58657 7.8348 9.6128 7.69828 9.66579 7.57132C9.71878 7.44437 9.7974 7.32971 9.89672 7.23453C9.99605 7.13934 10.1139 7.06567 10.243 7.01813C10.3721 6.97059 10.5096 6.95019 10.647 6.95822C10.7843 6.96625 10.9185 7.00253 11.0412 7.06479C11.1639 7.12705 11.2724 7.21395 11.3599 7.32006L15.2199 11.3201C15.3963 11.5029 15.4964 11.7461 15.4999 12.0001Z" fill="#15192C"/>
</svg>
