<svg width="27" height="24" viewBox="0 0 27 24" fill="none" xmlns="http://www.w3.org/2000/svg">
<path fill-rule="evenodd" clip-rule="evenodd" d="M8.64314 2H17.9181C21.3366 2 23.2401 3.78 23.2401 6.83V17.16C23.2401 20.26 21.3366 22 17.9181 22H8.64314C5.27887 22 3.32007 20.26 3.32007 17.16V6.83C3.32007 3.78 5.27887 2 8.64314 2ZM8.94194 6.66V6.65H12.2498C12.7267 6.65 13.1141 7 13.1141 7.429C13.1141 7.87 12.7267 8.22 12.2498 8.22H8.94194C8.46496 8.22 8.07874 7.87 8.07874 7.44C8.07874 7.01 8.46496 6.66 8.94194 6.66ZM8.94194 12.74H17.6182C18.0941 12.74 18.4814 12.39 18.4814 11.96C18.4814 11.53 18.0941 11.179 17.6182 11.179H8.94194C8.46496 11.179 8.07874 11.53 8.07874 11.96C8.07874 12.39 8.46496 12.74 8.94194 12.74ZM8.94194 17.31H17.6182C18.0598 17.27 18.3929 16.929 18.3929 16.53C18.3929 16.12 18.0598 15.78 17.6182 15.74H8.94194C8.60993 15.71 8.289 15.85 8.11194 16.11C7.93487 16.36 7.93487 16.69 8.11194 16.95C8.289 17.2 8.60993 17.35 8.94194 17.31Z" fill="#D0D2DA"/>
</svg>
