<svg width="27" height="24" viewBox="0 0 27 24" fill="none" xmlns="http://www.w3.org/2000/svg">
<path fill-rule="evenodd" clip-rule="evenodd" d="M8.64301 2H17.918C21.3365 2 23.2399 3.78 23.2399 6.83V17.16C23.2399 20.26 21.3365 22 17.918 22H8.64301C5.27875 22 3.31995 20.26 3.31995 17.16V6.83C3.31995 3.78 5.27875 2 8.64301 2ZM8.94181 6.66V6.65H12.2496C12.7266 6.65 13.1139 7 13.1139 7.429C13.1139 7.87 12.7266 8.22 12.2496 8.22H8.94181C8.46484 8.22 8.07861 7.87 8.07861 7.44C8.07861 7.01 8.46484 6.66 8.94181 6.66ZM8.94181 12.74H17.6181C18.0939 12.74 18.4813 12.39 18.4813 11.96C18.4813 11.53 18.0939 11.179 17.6181 11.179H8.94181C8.46484 11.179 8.07861 11.53 8.07861 11.96C8.07861 12.39 8.46484 12.74 8.94181 12.74ZM8.94181 17.31H17.6181C18.0596 17.27 18.3927 16.929 18.3927 16.53C18.3927 16.12 18.0596 15.78 17.6181 15.74H8.94181C8.60981 15.71 8.28888 15.85 8.11181 16.11C7.93475 16.36 7.93475 16.69 8.11181 16.95C8.28888 17.2 8.60981 17.35 8.94181 17.31Z" fill="#D0D2DA"/>
</svg>
