<svg width="24" height="24" viewBox="0 0 24 24" fill="none" xmlns="http://www.w3.org/2000/svg">
<path fill-rule="evenodd" clip-rule="evenodd" d="M14 4.5C14 3.67166 13.3283 3 12.5 3C11.6717 3 11 3.67166 11 4.5C11 5.32834 11.6717 6 12.5 6C13.3283 6 14 5.32834 14 4.5Z" stroke="#92959E" stroke-width="1.5" stroke-linecap="round" stroke-linejoin="round"/>
<path fill-rule="evenodd" clip-rule="evenodd" d="M14 12.5C14 11.6717 13.3283 11 12.5 11C11.6717 11 11 11.6717 11 12.5C11 13.3283 11.6717 14 12.5 14C13.3283 14 14 13.3283 14 12.5Z" stroke="#92959E" stroke-width="1.5" stroke-linecap="round" stroke-linejoin="round"/>
<path fill-rule="evenodd" clip-rule="evenodd" d="M14 20.5C14 19.6717 13.3289 19 12.5005 19C11.6717 19 11 19.6717 11 20.5C11 21.3283 11.6717 22 12.5005 22C13.3289 22 14 21.3283 14 20.5Z" stroke="#92959E" stroke-width="1.5" stroke-linecap="round" stroke-linejoin="round"/>
</svg>
