<svg width="27" height="24" viewBox="0 0 27 24" fill="none" xmlns="http://www.w3.org/2000/svg">
<path fill-rule="evenodd" clip-rule="evenodd" d="M8.64289 2H17.9179C21.3364 2 23.2398 3.78 23.2398 6.83V17.16C23.2398 20.26 21.3364 22 17.9179 22H8.64289C5.27862 22 3.31982 20.26 3.31982 17.16V6.83C3.31982 3.78 5.27862 2 8.64289 2ZM8.94169 6.66V6.65H12.2495C12.7265 6.65 13.1138 7 13.1138 7.429C13.1138 7.87 12.7265 8.22 12.2495 8.22H8.94169C8.46472 8.22 8.07849 7.87 8.07849 7.44C8.07849 7.01 8.46472 6.66 8.94169 6.66ZM8.94169 12.74H17.618C18.0938 12.74 18.4812 12.39 18.4812 11.96C18.4812 11.53 18.0938 11.179 17.618 11.179H8.94169C8.46472 11.179 8.07849 11.53 8.07849 11.96C8.07849 12.39 8.46472 12.74 8.94169 12.74ZM8.94169 17.31H17.618C18.0595 17.27 18.3926 16.929 18.3926 16.53C18.3926 16.12 18.0595 15.78 17.618 15.74H8.94169C8.60969 15.71 8.28876 15.85 8.11169 16.11C7.93462 16.36 7.93462 16.69 8.11169 16.95C8.28876 17.2 8.60969 17.35 8.94169 17.31Z" fill="#005898"/>
</svg>
