<svg width="221" height="197" viewBox="0 0 221 197" fill="none" xmlns="http://www.w3.org/2000/svg">
<mask id="mask0_1_156" style="mask-type:alpha" maskUnits="userSpaceOnUse" x="0" y="0" width="221" height="197">
<path d="M111 98.5L109 0.5H196L221 196.5H51.5L0 96L111 98.5Z" fill="#D9D9D9"/>
</mask>
<g mask="url(#mask0_1_156)">
<path d="M25.1136 93.5825C25.9872 76.5958 31.8785 60.2496 42.0423 46.611C52.206 32.9724 66.1859 22.654 82.214 16.9607C98.242 11.2673 115.598 10.4547 132.088 14.6256C148.578 18.7965 163.461 27.7635 174.855 40.3928C186.248 53.022 193.641 68.7463 196.098 85.5771C198.555 102.408 195.966 119.589 188.658 134.949C181.35 150.308 169.652 163.155 155.043 171.866C140.433 180.577 123.569 184.76 106.582 183.886L107.525 165.558C120.887 166.246 134.152 162.955 145.644 156.103C157.136 149.251 166.338 139.146 172.086 127.064C177.834 114.982 179.871 101.467 177.938 88.2282C176.005 74.989 170.19 62.6203 161.228 52.6862C152.266 42.752 140.559 35.6985 127.588 32.4177C114.617 29.1369 100.965 29.7761 88.3569 34.2545C75.7492 38.7329 64.7527 46.8493 56.7578 57.5774C48.763 68.3055 44.129 81.1634 43.4417 94.5252L25.1136 93.5825Z" fill="#52ACFF"/>
</g>
</svg>
