<svg width="221" height="197" viewBox="0 0 221 197" fill="none" xmlns="http://www.w3.org/2000/svg">
<mask id="mask0_1_972" style="mask-type:alpha" maskUnits="userSpaceOnUse" x="0" y="0" width="221" height="197">
<path d="M111 98.5L109 0.5H196L221 196.5H51.5L0 96L111 98.5Z" fill="#D9D9D9"/>
</mask>
<g mask="url(#mask0_1_972)">
<path d="M109.779 12.0087C126.786 11.7672 143.483 16.5744 157.759 25.8224C172.034 35.0705 183.247 48.344 189.978 63.9644C196.71 79.5849 198.658 96.8507 195.577 113.578C192.496 130.306 184.524 145.745 172.668 157.942C160.813 170.139 145.607 178.546 128.974 182.101C112.34 185.656 95.0258 184.198 79.2205 177.913C63.4152 171.628 49.8287 160.797 40.1791 146.789C30.5294 132.782 25.2501 116.228 25.0086 99.221L43.3591 98.9604C43.5491 112.339 47.7018 125.36 55.2922 136.378C62.8826 147.396 73.5698 155.915 86.0022 160.86C98.4347 165.804 112.054 166.95 125.138 164.154C138.222 161.358 150.183 154.744 159.508 145.15C168.834 135.556 175.105 123.412 177.528 110.254C179.952 97.096 178.419 83.5147 173.124 71.2276C167.829 58.9406 159.009 48.4996 147.78 41.2251C136.551 33.9506 123.417 30.1693 110.039 30.3593L109.779 12.0087Z" fill="#52ACFF"/>
</g>
</svg>
