<svg width="100" height="99" viewBox="0 0 100 99" fill="none" xmlns="http://www.w3.org/2000/svg">
<path fill-rule="evenodd" clip-rule="evenodd" d="M11.8859 0H87.7332C94.0164 0 99.1103 5.09368 99.1103 11.3771V87.2244C99.1103 93.5076 94.0164 98.6015 87.7332 98.6015H11.8859C5.60247 98.6015 0.508789 93.5076 0.508789 87.2244V11.3771C0.508789 5.09368 5.60247 0 11.8859 0ZM11.8859 7.58473C9.79144 7.58473 8.09352 9.28265 8.09352 11.3771V55.8509L20.8495 43.0949C21.504 42.4404 22.3962 42.0799 23.3217 42.0958C24.2471 42.1116 25.1264 42.5027 25.758 43.1793L52.6428 71.9798L73.9426 50.6796C75.2753 49.3468 77.4369 49.3468 78.7695 50.6796L91.5255 63.4356V11.3771C91.5255 9.28265 89.8273 7.58473 87.7332 7.58473H11.8859ZM8.09352 87.2244V65.5048L23.1786 50.4197L50.0454 79.2005L60.7401 91.0168H11.8859C9.79144 91.0168 8.09352 89.3185 8.09352 87.2244ZM87.7332 91.0168H69.947L57.2681 77.0078L76.3561 57.92L91.5255 73.0895V87.2244C91.5255 89.3185 89.8273 91.0168 87.7332 91.0168ZM43.3566 34.1313C43.3566 30.5674 46.2457 27.6783 49.8095 27.6783C53.3734 27.6783 56.2625 30.5674 56.2625 34.1313C56.2625 37.6951 53.3734 40.5842 49.8095 40.5842C46.2457 40.5842 43.3566 37.6951 43.3566 34.1313ZM49.8095 20.8521C42.4756 20.8521 36.5303 26.7974 36.5303 34.1313C36.5303 41.4652 42.4756 47.4105 49.8095 47.4105C57.1434 47.4105 63.0887 41.4652 63.0887 34.1313C63.0887 26.7974 57.1434 20.8521 49.8095 20.8521Z" fill="#A3A2A2"/>
</svg>
