<svg width="29" height="29" viewBox="0 0 29 29" fill="none" xmlns="http://www.w3.org/2000/svg">
<rect width="28.8534" height="28.8534" fill="white" fill-opacity="0.5"/>
<path d="M25.5558 13.1788C26.1256 13.9242 26.1256 14.9305 25.5558 15.6746C23.7608 18.0178 19.4545 22.8423 14.4268 22.8423C9.39905 22.8423 5.09268 18.0178 3.29775 15.6746C3.0205 15.3177 2.87 14.8787 2.87 14.4267C2.87 13.9748 3.0205 13.5357 3.29775 13.1788C5.09268 10.8357 9.39905 6.01114 14.4268 6.01114C19.4545 6.01114 23.7608 10.8357 25.5558 13.1788V13.1788Z" stroke="black" stroke-opacity="0.48" stroke-width="2" stroke-linecap="round" stroke-linejoin="round"/>
<path d="M14.4267 18.0334C16.4187 18.0334 18.0334 16.4186 18.0334 14.4267C18.0334 12.4348 16.4187 10.82 14.4267 10.82C12.4348 10.82 10.8201 12.4348 10.8201 14.4267C10.8201 16.4186 12.4348 18.0334 14.4267 18.0334Z" stroke="black" stroke-opacity="0.48" stroke-width="2" stroke-linecap="round" stroke-linejoin="round"/>
</svg>
